<?xml version="1.0" standalone="no"?>
<svg xmlns:xlink="http://www.w3.org/1999/xlink" id="wave" style="transform:rotate(0deg); transition: 0.3s" viewBox="0 0 1440 290" version="1.1" xmlns="http://www.w3.org/2000/svg"><defs><linearGradient id="sw-gradient-0" x1="0" x2="0" y1="1" y2="0"><stop stop-color="rgba(243, 106, 62, 1)" offset="0%"/><stop stop-color="rgba(255, 179, 11, 1)" offset="100%"/></linearGradient></defs><path style="transform:translate(0, 0px); opacity:1" fill="url(#sw-gradient-0)" d="M0,174L60,145C120,116,240,58,360,72.5C480,87,600,174,720,193.3C840,213,960,164,1080,120.8C1200,77,1320,39,1440,33.8C1560,29,1680,58,1800,82.2C1920,106,2040,126,2160,120.8C2280,116,2400,87,2520,96.7C2640,106,2760,155,2880,183.7C3000,213,3120,222,3240,232C3360,242,3480,251,3600,217.5C3720,184,3840,106,3960,91.8C4080,77,4200,126,4320,130.5C4440,135,4560,97,4680,67.7C4800,39,4920,19,5040,48.3C5160,77,5280,155,5400,183.7C5520,213,5640,193,5760,169.2C5880,145,6000,116,6120,116C6240,116,6360,145,6480,140.2C6600,135,6720,97,6840,87C6960,77,7080,97,7200,130.5C7320,164,7440,213,7560,193.3C7680,174,7800,87,7920,87C8040,87,8160,174,8280,203C8400,232,8520,203,8580,188.5L8640,174L8640,290L8580,290C8520,290,8400,290,8280,290C8160,290,8040,290,7920,290C7800,290,7680,290,7560,290C7440,290,7320,290,7200,290C7080,290,6960,290,6840,290C6720,290,6600,290,6480,290C6360,290,6240,290,6120,290C6000,290,5880,290,5760,290C5640,290,5520,290,5400,290C5280,290,5160,290,5040,290C4920,290,4800,290,4680,290C4560,290,4440,290,4320,290C4200,290,4080,290,3960,290C3840,290,3720,290,3600,290C3480,290,3360,290,3240,290C3120,290,3000,290,2880,290C2760,290,2640,290,2520,290C2400,290,2280,290,2160,290C2040,290,1920,290,1800,290C1680,290,1560,290,1440,290C1320,290,1200,290,1080,290C960,290,840,290,720,290C600,290,480,290,360,290C240,290,120,290,60,290L0,290Z"/></svg>